<svg xmlns="http://www.w3.org/2000/svg" xmlns:xlink="http://www.w3.org/1999/xlink" version="1.1" width="1000" height="1000" viewBox="0 0 1000 1000" xml:space="preserve">
<desc>Created with Fabric.js 3.5.0</desc>
<defs>
</defs>
<rect x="0" y="0" width="100%" height="100%" fill="#ffffff"/>
<g transform="matrix(1 0 0 1 464.2336 500)" style="" id="730150">
		
<path xml:space="preserve" font-family="Lato" font-size="80" font-style="normal" font-weight="bold" style="stroke: none; stroke-width: 1; stroke-dasharray: none; stroke-linecap: butt; stroke-dashoffset: 0; stroke-linejoin: miter; stroke-miterlimit: 4; is-custom-font: none; font-file-url: none; fill: rgb(0,0,0); fill-rule: nonzero; opacity: 1; white-space: pre;" d="M-362.07-3.79L-362.07-3.79Q-362.07 2.57-364.19 7.99Q-366.31 13.41-370.15 17.37Q-373.99 21.33-379.39 23.55Q-384.79 25.77-391.35 25.77L-391.35 25.77Q-397.91 25.77-403.33 23.55Q-408.75 21.33-412.61 17.37Q-416.47 13.41-418.59 7.99Q-420.71 2.57-420.71-3.79L-420.71-3.79Q-420.71-10.15-418.59-15.57Q-416.47-20.99-412.61-24.95Q-408.75-28.91-403.33-31.13Q-397.91-33.35-391.35-33.35L-391.35-33.35Q-384.79-33.35-379.39-31.11Q-373.99-28.87-370.15-24.93Q-366.31-20.99-364.19-15.57Q-362.07-10.15-362.07-3.79ZM-373.11-3.79L-373.11-3.79Q-373.11-8.55-374.37-12.33Q-375.63-16.11-377.99-18.75Q-380.35-21.39-383.73-22.79Q-387.11-24.19-391.35-24.19L-391.35-24.19Q-395.59-24.19-398.99-22.79Q-402.39-21.39-404.77-18.75Q-407.15-16.11-408.43-12.33Q-409.71-8.55-409.71-3.79L-409.71-3.79Q-409.71 0.97-408.43 4.75Q-407.15 8.53-404.77 11.15Q-402.39 13.77-398.99 15.17Q-395.59 16.57-391.35 16.57L-391.35 16.57Q-387.11 16.57-383.73 15.17Q-380.35 13.77-377.99 11.15Q-375.63 8.53-374.37 4.75Q-373.11 0.97-373.11-3.79ZM-337.87 2.53L-342.47 2.53L-342.47 25.13L-353.23 25.13L-353.23-32.71L-335.59-32.71Q-329.67-32.71-325.45-31.49Q-321.23-30.27-318.53-28.07Q-315.83-25.87-314.57-22.81Q-313.31-19.75-313.31-16.07L-313.31-16.07Q-313.31-13.15-314.17-10.55Q-315.03-7.95-316.65-5.83Q-318.27-3.71-320.65-2.11Q-323.03-0.51-326.07 0.45L-326.07 0.45Q-324.03 1.61-322.55 3.77L-322.55 3.77L-308.07 25.13L-317.75 25.13Q-319.15 25.13-320.13 24.57Q-321.11 24.01-321.79 22.97L-321.79 22.97L-333.95 4.45Q-334.63 3.41-335.45 2.97Q-336.27 2.53-337.87 2.53L-337.87 2.53ZM-342.47-24.39L-342.47-5.19L-335.75-5.19Q-332.71-5.19-330.45-5.95Q-328.19-6.71-326.73-8.05Q-325.27-9.39-324.55-11.23Q-323.83-13.07-323.83-15.27L-323.83-15.27Q-323.83-19.67-326.73-22.03Q-329.63-24.39-335.59-24.39L-335.59-24.39L-342.47-24.39ZM-290.43-32.71L-290.43 16.25L-267.27 16.25L-267.27 25.13L-301.19 25.13L-301.19-32.71L-290.43-32.71ZM-259.83-32.71L-223.35-32.71L-223.35-24.15L-248.99-24.15L-248.99-8.11L-228.79-8.11L-228.79 0.17L-248.99 0.17L-248.99 16.53L-223.35 16.53L-223.35 25.13L-259.83 25.13L-259.83-32.71ZM-185.91-32.71L-163.19 25.13L-171.51 25.13Q-172.91 25.13-173.81 24.43Q-174.71 23.73-175.11 22.69L-175.11 22.69L-179.43 10.89L-203.39 10.89L-207.71 22.69Q-208.03 23.61-208.97 24.37Q-209.91 25.13-211.27 25.13L-211.27 25.13L-219.63 25.13L-196.91-32.71L-185.91-32.71ZM-193.59-15.87L-200.63 3.29L-182.19 3.29L-189.23-15.95Q-189.71-17.23-190.29-18.97Q-190.87-20.71-191.43-22.75L-191.43-22.75Q-191.99-20.71-192.53-18.95Q-193.07-17.19-193.59-15.87L-193.59-15.87ZM-151.59-32.71L-151.59-32.71Q-150.87-32.71-150.39-32.65Q-149.91-32.59-149.53-32.41Q-149.15-32.23-148.79-31.89Q-148.43-31.55-147.99-30.99L-147.99-30.99L-117.63 7.69Q-117.79 6.29-117.85 4.95Q-117.91 3.61-117.91 2.45L-117.91 2.45L-117.91-32.71L-108.43-32.71L-108.43 25.13L-113.99 25.13Q-115.27 25.13-116.11 24.73Q-116.95 24.33-117.75 23.29L-117.75 23.29L-147.99-15.23Q-147.87-13.95-147.81-12.69Q-147.75-11.43-147.75-10.39L-147.75-10.39L-147.75 25.13L-157.23 25.13L-157.23-32.71L-151.59-32.71ZM-63.11-27.27L-65.75-22.19Q-66.19-21.31-66.77-20.95Q-67.35-20.59-68.15-20.59L-68.15-20.59Q-68.95-20.59-69.95-21.21Q-70.95-21.83-72.31-22.59Q-73.67-23.35-75.49-23.97Q-77.31-24.59-79.79-24.59L-79.79-24.59Q-82.03-24.59-83.69-24.05Q-85.35-23.51-86.49-22.55Q-87.63-21.59-88.19-20.25Q-88.75-18.91-88.75-17.31L-88.75-17.31Q-88.75-15.27-87.61-13.91Q-86.47-12.55-84.59-11.59Q-82.71-10.63-80.31-9.87Q-77.91-9.11-75.41-8.25Q-72.91-7.39-70.51-6.25Q-68.11-5.11-66.23-3.37Q-64.35-1.63-63.21 0.89Q-62.07 3.41-62.07 7.01L-62.07 7.01Q-62.07 10.93-63.41 14.35Q-64.75 17.77-67.33 20.31Q-69.91 22.85-73.63 24.31Q-77.35 25.77-82.15 25.77L-82.15 25.77Q-84.91 25.77-87.59 25.23Q-90.27 24.69-92.73 23.69Q-95.19 22.69-97.33 21.29Q-99.47 19.89-101.15 18.17L-101.15 18.17L-98.03 13.01Q-97.59 12.45-96.97 12.07Q-96.35 11.69-95.59 11.69L-95.59 11.69Q-94.59 11.69-93.43 12.51Q-92.27 13.33-90.69 14.33Q-89.11 15.33-86.97 16.15Q-84.83 16.97-81.83 16.97L-81.83 16.97Q-77.23 16.97-74.71 14.79Q-72.19 12.61-72.19 8.53L-72.19 8.53Q-72.19 6.25-73.33 4.81Q-74.47 3.37-76.35 2.39Q-78.23 1.41-80.63 0.73Q-83.03 0.05-85.51-0.75Q-87.99-1.55-90.39-2.67Q-92.79-3.79-94.67-5.59Q-96.55-7.39-97.69-10.09Q-98.83-12.79-98.83-16.75L-98.83-16.75Q-98.83-19.91-97.57-22.91Q-96.31-25.91-93.89-28.23Q-91.47-30.55-87.95-31.95Q-84.43-33.35-79.91-33.35L-79.91-33.35Q-74.79-33.35-70.47-31.75Q-66.15-30.15-63.11-27.27L-63.11-27.27ZM-9.35 1.13L-9.35 1.13Q-8.67 2.41-8.09 3.79Q-7.51 5.17-6.95 6.57L-6.95 6.57Q-6.39 5.13-5.79 3.73Q-5.19 2.33-4.51 1.05L-4.51 1.05L12.61-30.99Q12.93-31.59 13.27-31.95Q13.61-32.31 14.03-32.47Q14.45-32.63 14.97-32.67Q15.49-32.71 16.21-32.71L16.21-32.71L24.33-32.71L24.33 25.13L14.85 25.13L14.85-12.23Q14.85-13.27 14.91-14.51Q14.97-15.75 15.09-17.03L15.09-17.03L-2.39 15.77Q-2.99 16.89-3.95 17.51Q-4.91 18.13-6.19 18.13L-6.19 18.13L-7.67 18.13Q-8.95 18.13-9.91 17.51Q-10.87 16.89-11.47 15.77L-11.47 15.77L-29.19-17.15Q-29.03-15.83-28.97-14.57Q-28.91-13.31-28.91-12.23L-28.91-12.23L-28.91 25.13L-38.39 25.13L-38.39-32.71L-30.27-32.71Q-29.55-32.71-29.03-32.67Q-28.51-32.63-28.09-32.47Q-27.67-32.31-27.31-31.95Q-26.95-31.59-26.63-30.99L-26.63-30.99L-9.35 1.13ZM36.01-32.71L72.49-32.71L72.49-24.15L46.85-24.15L46.85-8.11L67.05-8.11L67.05 0.17L46.85 0.17L46.85 16.53L72.49 16.53L72.49 25.13L36.01 25.13L36.01-32.71ZM76.93-32.71L122.57-32.71L122.57-23.87L105.17-23.87L105.17 25.13L94.41 25.13L94.41-23.87L76.93-23.87L76.93-32.71ZM145.13 2.53L140.53 2.53L140.53 25.13L129.77 25.13L129.77-32.71L147.41-32.71Q153.33-32.71 157.55-31.49Q161.77-30.27 164.47-28.07Q167.17-25.87 168.43-22.81Q169.69-19.75 169.69-16.07L169.69-16.07Q169.69-13.15 168.83-10.55Q167.97-7.95 166.35-5.83Q164.73-3.71 162.35-2.11Q159.97-0.51 156.93 0.45L156.93 0.45Q158.97 1.61 160.45 3.77L160.45 3.77L174.93 25.13L165.25 25.13Q163.85 25.13 162.87 24.57Q161.89 24.01 161.21 22.97L161.21 22.97L149.05 4.45Q148.37 3.41 147.55 2.97Q146.73 2.53 145.13 2.53L145.13 2.53ZM140.53-24.39L140.53-5.19L147.25-5.19Q150.29-5.19 152.55-5.95Q154.81-6.71 156.27-8.05Q157.73-9.39 158.45-11.23Q159.17-13.07 159.17-15.27L159.17-15.27Q159.17-19.67 156.27-22.03Q153.37-24.39 147.41-24.39L147.41-24.39L140.53-24.39ZM235.37-3.79L235.37-3.79Q235.37 2.57 233.25 7.99Q231.13 13.41 227.29 17.37Q223.45 21.33 218.05 23.55Q212.65 25.77 206.09 25.77L206.09 25.77Q199.53 25.77 194.11 23.55Q188.69 21.33 184.83 17.37Q180.97 13.41 178.85 7.99Q176.73 2.57 176.73-3.79L176.73-3.79Q176.73-10.15 178.85-15.57Q180.97-20.99 184.83-24.95Q188.69-28.91 194.11-31.13Q199.53-33.35 206.09-33.35L206.09-33.35Q212.65-33.35 218.05-31.11Q223.45-28.87 227.29-24.93Q231.13-20.99 233.25-15.57Q235.37-10.15 235.37-3.79ZM224.33-3.79L224.33-3.79Q224.33-8.55 223.07-12.33Q221.81-16.11 219.45-18.75Q217.09-21.39 213.71-22.79Q210.33-24.19 206.09-24.19L206.09-24.19Q201.85-24.19 198.45-22.79Q195.05-21.39 192.67-18.75Q190.29-16.11 189.01-12.33Q187.73-8.55 187.73-3.79L187.73-3.79Q187.73 0.97 189.01 4.75Q190.29 8.53 192.67 11.15Q195.05 13.77 198.45 15.17Q201.85 16.57 206.09 16.57L206.09 16.57Q210.33 16.57 213.71 15.17Q217.09 13.77 219.45 11.15Q221.81 8.53 223.07 4.75Q224.33 0.97 224.33-3.79ZM263.05 4.77L254.97 4.77L254.97 25.13L244.21 25.13L244.21-32.71L263.05-32.71Q268.85-32.71 273.09-31.35Q277.33-29.99 280.09-27.55Q282.85-25.11 284.17-21.71Q285.49-18.31 285.49-14.27L285.49-14.27Q285.49-10.07 284.09-6.57Q282.69-3.07 279.89-0.55Q277.09 1.97 272.89 3.37Q268.69 4.77 263.05 4.77L263.05 4.77ZM254.97-24.39L254.97-3.63L263.05-3.63Q266.01-3.63 268.21-4.37Q270.41-5.11 271.85-6.49Q273.29-7.87 274.01-9.85Q274.73-11.83 274.73-14.27L274.73-14.27Q274.73-16.59 274.01-18.47Q273.29-20.35 271.85-21.67Q270.41-22.99 268.21-23.69Q266.01-24.39 263.05-24.39L263.05-24.39L254.97-24.39ZM349.33-3.79L349.33-3.79Q349.33 2.57 347.21 7.99Q345.09 13.41 341.25 17.37Q337.41 21.33 332.01 23.55Q326.61 25.77 320.05 25.77L320.05 25.77Q313.49 25.77 308.07 23.55Q302.65 21.33 298.79 17.37Q294.93 13.41 292.81 7.99Q290.69 2.57 290.69-3.79L290.69-3.79Q290.69-10.15 292.81-15.57Q294.93-20.99 298.79-24.95Q302.65-28.91 308.07-31.13Q313.49-33.35 320.05-33.35L320.05-33.35Q326.61-33.35 332.01-31.11Q337.41-28.87 341.25-24.93Q345.09-20.99 347.21-15.57Q349.33-10.15 349.33-3.79ZM338.29-3.79L338.29-3.79Q338.29-8.55 337.03-12.33Q335.77-16.11 333.41-18.75Q331.05-21.39 327.67-22.79Q324.29-24.19 320.05-24.19L320.05-24.19Q315.81-24.19 312.41-22.79Q309.01-21.39 306.63-18.75Q304.25-16.11 302.97-12.33Q301.69-8.55 301.69-3.79L301.69-3.79Q301.69 0.97 302.97 4.75Q304.25 8.53 306.63 11.15Q309.01 13.77 312.41 15.17Q315.81 16.57 320.05 16.57L320.05 16.57Q324.29 16.57 327.67 15.17Q331.05 13.77 333.41 11.15Q335.77 8.53 337.03 4.75Q338.29 0.97 338.29-3.79ZM368.57-32.71L368.57 16.25L391.73 16.25L391.73 25.13L357.81 25.13L357.81-32.71L368.57-32.71ZM399.17-32.71L435.65-32.71L435.65-24.15L410.01-24.15L410.01-8.11L430.21-8.11L430.21 0.17L410.01 0.17L410.01 16.53L435.65 16.53L435.65 25.13L399.17 25.13L399.17-32.71Z"/></g>
</svg>